<svg width="233" height="50" viewBox="0 0 233 50" fill="none" xmlns="http://www.w3.org/2000/svg">
<path d="M0 25C0 11.1929 11.1929 0 25 0C38.8071 0 50 11.1929 50 25C50 38.8071 38.8071 50 25 50C11.1929 50 0 38.8071 0 25Z" fill="#89A9FF"/>
<path d="M16.6077 10.3191C16.5821 10.3187 16.5568 10.325 16.5344 10.3374C16.5121 10.3499 16.4933 10.368 16.4802 10.3899L8.01983 24.9292C8.00662 24.9515 7.99965 24.9769 7.99965 25.0028C7.99965 25.0288 8.00662 25.0542 8.01983 25.0765L16.5751 39.6115C16.6318 39.7078 16.7734 39.7078 16.8301 39.6115L25.2904 25.0737C25.3032 25.0511 25.3097 25.0255 25.3092 24.9996C25.3087 24.9737 25.3012 24.9484 25.2876 24.9263L16.7352 10.3899C16.722 10.368 16.7033 10.3499 16.6809 10.3374C16.6585 10.325 16.6333 10.3187 16.6077 10.3191ZM20.6636 10.3191C20.638 10.319 20.6128 10.3256 20.5905 10.3383C20.5683 10.3509 20.5498 10.3693 20.5369 10.3914C20.524 10.4135 20.5171 10.4386 20.5169 10.4642C20.5168 10.4898 20.5234 10.515 20.5361 10.5373L27.8829 23.2405C27.8958 23.2631 27.9143 23.2818 27.9367 23.295C27.959 23.3082 27.9845 23.3153 28.0104 23.3156H32.4262C32.5395 23.3156 32.6103 23.1909 32.5537 23.0932L25.2068 10.3913C25.1937 10.3692 25.1751 10.3509 25.1527 10.3382C25.1303 10.3256 25.105 10.319 25.0793 10.3191H20.6636ZM29.0092 10.3191C28.9836 10.319 28.9585 10.3257 28.9364 10.3385C28.9143 10.3513 28.896 10.3697 28.8834 10.3919C28.8707 10.4141 28.8641 10.4392 28.8643 10.4647C28.8645 10.4903 28.8715 10.5153 28.8845 10.5373L37.2627 25L28.8845 39.4628C28.8715 39.4847 28.8645 39.5097 28.8643 39.5353C28.8641 39.5608 28.8707 39.5859 28.8834 39.6081C28.896 39.6303 28.9143 39.6487 28.9364 39.6615C28.9585 39.6743 28.9836 39.681 29.0092 39.6809H33.4334C33.4586 39.6813 33.4835 39.6749 33.5054 39.6624C33.5273 39.65 33.5455 39.6319 33.5581 39.6101L41.9802 25.0723C41.9931 25.0504 42 25.0254 42 25C42 24.9746 41.9931 24.9496 41.9802 24.9278L33.5581 10.3913C33.5457 10.3692 33.5276 10.3509 33.5056 10.3382C33.4837 10.3255 33.4588 10.3189 33.4334 10.3191H29.0092ZM27.89 26.8941C27.8643 26.8938 27.839 26.9004 27.8167 26.9134C27.7945 26.9264 27.7763 26.9452 27.7639 26.9678L20.5375 39.4628C20.4808 39.5605 20.5517 39.6809 20.665 39.6809H25.0808C25.1063 39.6812 25.1315 39.6748 25.1539 39.6624C25.1762 39.65 25.195 39.6319 25.2083 39.6101L32.4333 27.1151C32.4463 27.0928 32.4532 27.0675 32.4532 27.0416C32.4533 27.0158 32.4464 26.9905 32.4335 26.9681C32.4205 26.9458 32.4019 26.9273 32.3794 26.9146C32.357 26.9018 32.3316 26.8952 32.3058 26.8955H27.8886L27.89 26.8941Z" fill="white"/>
<path d="M77.524 31.216C79.72 31.216 81.538 30.424 82.726 28.966L80.854 27.238C80.008 28.228 78.946 28.732 77.686 28.732C75.328 28.732 73.654 27.076 73.654 24.7C73.654 22.324 75.328 20.668 77.686 20.668C78.946 20.668 80.008 21.172 80.854 22.144L82.726 20.416C81.538 18.976 79.72 18.184 77.542 18.184C73.618 18.184 70.702 20.902 70.702 24.7C70.702 28.498 73.618 31.216 77.524 31.216Z" fill="#607AFF"/>
<path d="M87.1792 22.594V21.316H84.4972V31H87.3052V26.428C87.3052 24.574 88.3312 23.728 89.8792 23.728C90.0952 23.728 90.2752 23.746 90.5092 23.764V21.172C89.0152 21.172 87.8632 21.658 87.1792 22.594Z" fill="#607AFF"/>
<path d="M99.4248 21.316L96.6888 27.886L93.9708 21.316H91.0728L95.2668 31.072L95.2308 31.162C94.8528 32.026 94.4208 32.368 93.6468 32.368C93.0888 32.368 92.4948 32.134 92.0628 31.756L91.0368 33.754C91.6668 34.312 92.7468 34.636 93.7368 34.636C95.4828 34.636 96.8148 33.934 97.7508 31.594L102.125 21.316H99.4248Z" fill="#607AFF"/>
<path d="M108.995 21.172C107.699 21.172 106.655 21.586 105.953 22.432V21.316H103.271V34.492H106.079V29.974C106.799 30.766 107.789 31.144 108.995 31.144C111.713 31.144 113.819 29.2 113.819 26.158C113.819 23.116 111.713 21.172 108.995 21.172ZM108.509 28.84C107.105 28.84 106.043 27.832 106.043 26.158C106.043 24.484 107.105 23.476 108.509 23.476C109.913 23.476 110.975 24.484 110.975 26.158C110.975 27.832 109.913 28.84 108.509 28.84Z" fill="#607AFF"/>
<path d="M121.188 28.552C120.882 28.786 120.468 28.912 120.054 28.912C119.298 28.912 118.848 28.462 118.848 27.634V23.692H121.26V21.532H118.848V19.174H116.04V21.532H114.546V23.692H116.04V27.67C116.04 29.974 117.372 31.144 119.658 31.144C120.522 31.144 121.368 30.946 121.944 30.532L121.188 28.552Z" fill="#607AFF"/>
<path d="M127.83 31.144C130.908 31.144 133.14 29.074 133.14 26.158C133.14 23.242 130.908 21.172 127.83 21.172C124.752 21.172 122.502 23.242 122.502 26.158C122.502 29.074 124.752 31.144 127.83 31.144ZM127.83 28.84C126.426 28.84 125.346 27.832 125.346 26.158C125.346 24.484 126.426 23.476 127.83 23.476C129.234 23.476 130.296 24.484 130.296 26.158C130.296 27.832 129.234 28.84 127.83 28.84Z" fill="#607AFF"/>
<path d="M139.697 31.144C141.731 31.144 143.333 30.244 144.035 28.696L141.857 27.508C141.335 28.444 140.561 28.84 139.679 28.84C138.257 28.84 137.141 27.85 137.141 26.158C137.141 24.466 138.257 23.476 139.679 23.476C140.561 23.476 141.335 23.89 141.857 24.808L144.035 23.638C143.333 22.054 141.731 21.172 139.697 21.172C136.547 21.172 134.297 23.242 134.297 26.158C134.297 29.074 136.547 31.144 139.697 31.144Z" fill="#607AFF"/>
<path d="M152.599 21.316V26.104C152.599 27.886 151.663 28.714 150.367 28.714C149.125 28.714 148.405 27.994 148.405 26.374V21.316H145.597V26.788C145.597 29.776 147.307 31.144 149.737 31.144C150.925 31.144 152.005 30.694 152.743 29.848V31H155.407V21.316H152.599Z" fill="#607AFF"/>
<path d="M160.691 22.594V21.316H158.009V31H160.817V26.428C160.817 24.574 161.843 23.728 163.391 23.728C163.607 23.728 163.787 23.746 164.021 23.764V21.172C162.527 21.172 161.375 21.658 160.691 22.594Z" fill="#607AFF"/>
<path d="M168.373 22.594V21.316H165.691V31H168.499V26.428C168.499 24.574 169.525 23.728 171.073 23.728C171.289 23.728 171.469 23.746 171.703 23.764V21.172C170.209 21.172 169.057 21.658 168.373 22.594Z" fill="#607AFF"/>
<path d="M182.77 26.194C182.77 23.08 180.574 21.172 177.73 21.172C174.778 21.172 172.564 23.26 172.564 26.158C172.564 29.038 174.742 31.144 178.09 31.144C179.836 31.144 181.186 30.604 182.086 29.578L180.592 27.958C179.926 28.588 179.188 28.894 178.162 28.894C176.686 28.894 175.66 28.156 175.39 26.95H182.716C182.734 26.716 182.77 26.41 182.77 26.194ZM177.748 23.296C179.008 23.296 179.926 24.088 180.124 25.312H175.354C175.552 24.07 176.47 23.296 177.748 23.296Z" fill="#607AFF"/>
<path d="M190.526 21.172C189.212 21.172 188.078 21.622 187.322 22.45V21.316H184.64V31H187.448V26.212C187.448 24.43 188.42 23.602 189.77 23.602C191.012 23.602 191.732 24.322 191.732 25.888V31H194.54V25.456C194.54 22.504 192.812 21.172 190.526 21.172Z" fill="#607AFF"/>
<path d="M201.871 31.144C203.905 31.144 205.507 30.244 206.209 28.696L204.031 27.508C203.509 28.444 202.735 28.84 201.853 28.84C200.431 28.84 199.315 27.85 199.315 26.158C199.315 24.466 200.431 23.476 201.853 23.476C202.735 23.476 203.509 23.89 204.031 24.808L206.209 23.638C205.507 22.054 203.905 21.172 201.871 21.172C198.721 21.172 196.471 23.242 196.471 26.158C196.471 29.074 198.721 31.144 201.871 31.144Z" fill="#607AFF"/>
<path d="M209.229 19.966C210.273 19.966 210.975 19.282 210.975 18.346C210.975 17.482 210.273 16.834 209.229 16.834C208.185 16.834 207.483 17.518 207.483 18.4C207.483 19.282 208.185 19.966 209.229 19.966ZM207.825 31H210.633V21.316H207.825V31Z" fill="#607AFF"/>
<path d="M222.725 26.194C222.725 23.08 220.529 21.172 217.685 21.172C214.733 21.172 212.519 23.26 212.519 26.158C212.519 29.038 214.697 31.144 218.045 31.144C219.791 31.144 221.141 30.604 222.041 29.578L220.547 27.958C219.881 28.588 219.143 28.894 218.117 28.894C216.641 28.894 215.615 28.156 215.345 26.95H222.671C222.689 26.716 222.725 26.41 222.725 26.194ZM217.703 23.296C218.963 23.296 219.881 24.088 220.079 25.312H215.309C215.507 24.07 216.425 23.296 217.703 23.296Z" fill="#607AFF"/>
<path d="M227.853 31.144C230.751 31.144 232.425 29.866 232.425 28.066C232.425 24.25 226.575 25.852 226.575 24.196C226.575 23.692 227.115 23.296 228.375 23.296C229.257 23.296 230.211 23.476 231.165 24.016L232.101 22.018C231.183 21.478 229.707 21.172 228.375 21.172C225.549 21.172 223.893 22.468 223.893 24.304C223.893 28.174 229.743 26.554 229.743 28.138C229.743 28.678 229.257 29.02 227.961 29.02C226.773 29.02 225.459 28.642 224.595 28.084L223.659 30.1C224.559 30.694 226.215 31.144 227.853 31.144Z" fill="#607AFF"/>
</svg>
