<svg width="50" height="50" viewBox="0 0 50 50" fill="none" xmlns="http://www.w3.org/2000/svg">
<rect width="50" height="50" rx="25" fill="#89A9FF"/>
<g clip-path="url(#clip0_155_49)">
<path d="M16.6077 10.3191C16.5821 10.3187 16.5568 10.325 16.5344 10.3375C16.512 10.3499 16.4933 10.368 16.4802 10.3899L8.01982 24.9292C8.00661 24.9515 7.99963 24.9769 7.99963 25.0029C7.99963 25.0288 8.00661 25.0542 8.01982 25.0765L16.5751 39.6115C16.6317 39.7079 16.7734 39.7079 16.8301 39.6115L25.2904 25.0737C25.3032 25.0511 25.3097 25.0256 25.3092 24.9996C25.3087 24.9737 25.3012 24.9484 25.2876 24.9264L16.7352 10.3899C16.722 10.368 16.7033 10.3499 16.6809 10.3375C16.6585 10.325 16.6333 10.3187 16.6077 10.3191ZM20.6636 10.3191C20.638 10.319 20.6128 10.3256 20.5905 10.3383C20.5683 10.351 20.5498 10.3693 20.5369 10.3914C20.5239 10.4135 20.5171 10.4386 20.5169 10.4642C20.5168 10.4898 20.5234 10.515 20.5361 10.5373L27.8829 23.2405C27.8958 23.2631 27.9143 23.2819 27.9367 23.295C27.959 23.3082 27.9845 23.3153 28.0104 23.3156H32.4262C32.5395 23.3156 32.6103 23.1909 32.5537 23.0932L25.2068 10.3914C25.1937 10.3692 25.1751 10.3509 25.1527 10.3383C25.1303 10.3256 25.105 10.319 25.0793 10.3191H20.665H20.6636ZM29.0092 10.3191C28.9836 10.319 28.9585 10.3258 28.9364 10.3385C28.9143 10.3513 28.896 10.3697 28.8833 10.3919C28.8707 10.4141 28.8641 10.4392 28.8643 10.4648C28.8645 10.4903 28.8715 10.5153 28.8845 10.5373L37.2627 25L28.8845 39.4628C28.8715 39.4847 28.8645 39.5098 28.8643 39.5353C28.8641 39.5608 28.8707 39.586 28.8833 39.6081C28.896 39.6303 28.9143 39.6487 28.9364 39.6615C28.9585 39.6743 28.9836 39.681 29.0092 39.6809H33.4334C33.4586 39.6813 33.4834 39.6749 33.5054 39.6625C33.5273 39.65 33.5455 39.6319 33.5581 39.6101L41.9802 25.0723C41.9931 25.0504 42 25.0255 42 25C42 24.9746 41.9931 24.9496 41.9802 24.9278L33.5581 10.3914C33.5457 10.3693 33.5275 10.3509 33.5056 10.3382C33.4837 10.3255 33.4587 10.3189 33.4334 10.3191H29.0092ZM27.89 26.8941C27.8643 26.8938 27.8389 26.9005 27.8167 26.9134C27.7945 26.9264 27.7763 26.9452 27.7639 26.9678L20.5375 39.4628C20.4808 39.5605 20.5517 39.6809 20.665 39.6809H25.0807C25.1063 39.6812 25.1315 39.6748 25.1539 39.6624C25.1762 39.65 25.195 39.632 25.2082 39.6101L32.4332 27.1151C32.4463 27.0928 32.4532 27.0675 32.4532 27.0417C32.4532 27.0159 32.4464 26.9905 32.4335 26.9682C32.4205 26.9458 32.4019 26.9274 32.3794 26.9146C32.357 26.9018 32.3316 26.8953 32.3057 26.8955H27.8886L27.89 26.8941Z" fill="white"/>
</g>
<defs>
<clipPath id="clip0_155_49">
<rect width="34" height="34" fill="white" transform="translate(8 8)"/>
</clipPath>
</defs>
</svg>
